<svg width="1473" height="177" viewBox="0 0 1473 177" fill="none" xmlns="http://www.w3.org/2000/svg">
<path d="M123.067 123.88C123.067 157.293 105.147 174 69.3067 174H0.70672V0.119986H67.9067C85.6401 0.119986 98.8001 3.75999 107.387 11.04C115.973 18.1333 120.267 29.52 120.267 45.2C120.267 60.88 113.827 72.8267 100.947 81.04V82.72C115.693 88.5067 123.067 102.227 123.067 123.88ZM58.1067 142.92C63.7067 142.92 67.4401 141.707 69.3067 139.28C71.3601 136.667 72.3867 131.44 72.3867 123.6C72.3867 115.573 71.3601 109.973 69.3067 106.8C67.2534 103.44 63.5201 101.76 58.1067 101.76H49.1467V142.92H58.1067ZM58.3867 74.6C62.6801 74.6 65.6667 73.2933 67.3467 70.68C69.0267 68.0667 69.8667 63.4933 69.8667 56.96C69.8667 50.24 68.9334 45.5733 67.0667 42.96C65.3867 40.16 62.4001 38.76 58.1067 38.76H49.1467V74.6H58.3867ZM227.82 174H139.34V0.119986H187.22V135.08H230.62L227.82 174ZM291.185 174H243.585V0.119986H291.185V174ZM419.795 42.4H387.315V174H339.435V42.4H304.995L307.795 0.119986H422.595L419.795 42.4ZM544.998 174H430.758L429.638 148.24L480.878 43.52H426.838L424.038 0.119986H542.198L543.598 27.56L494.878 133.96H544.998V174ZM741.309 123.88C741.309 157.293 723.389 174 687.549 174H618.949V0.119986H686.149C703.882 0.119986 717.042 3.75999 725.629 11.04C734.216 18.1333 738.509 29.52 738.509 45.2C738.509 60.88 732.069 72.8267 719.189 81.04V82.72C733.936 88.5067 741.309 102.227 741.309 123.88ZM676.349 142.92C681.949 142.92 685.682 141.707 687.549 139.28C689.602 136.667 690.629 131.44 690.629 123.6C690.629 115.573 689.602 109.973 687.549 106.8C685.496 103.44 681.762 101.76 676.349 101.76H667.389V142.92H676.349ZM676.629 74.6C680.922 74.6 683.909 73.2933 685.589 70.68C687.269 68.0667 688.109 63.4933 688.109 56.96C688.109 50.24 687.176 45.5733 685.309 42.96C683.629 40.16 680.642 38.76 676.349 38.76H667.389V74.6H676.629ZM806.582 116.88C806.582 122.667 807.795 126.96 810.222 129.76C812.648 132.56 816.568 133.96 821.982 133.96C827.582 133.96 831.408 132.653 833.462 130.04C835.702 127.24 836.822 122.76 836.822 116.6V0.119986H884.982V119.4C884.982 139.373 879.475 153.933 868.462 163.08C857.635 172.227 841.582 176.8 820.302 176.8C799.208 176.8 783.435 172.32 772.982 163.36C762.715 154.213 757.582 139.747 757.582 119.96V0.119986H806.582V116.88ZM960.013 174H912.413V0.119986H960.013V174ZM1076.02 174H987.543V0.119986H1035.42V135.08H1078.82L1076.02 174ZM1218.35 83.28C1218.35 143.76 1194.45 174 1146.67 174H1088.99V0.119986H1147.79C1173.36 0.119986 1191.47 7.30665 1202.11 21.68C1212.93 35.8667 1218.35 56.4 1218.35 83.28ZM1145.83 133.68C1155.72 133.68 1162.07 130.227 1164.87 123.32C1167.85 116.227 1169.35 104.467 1169.35 88.04C1169.35 71.4267 1167.76 59.6667 1164.59 52.76C1161.6 45.8533 1155.07 42.4 1144.99 42.4H1136.59V133.68H1145.83ZM1330.45 174H1236.37V0.119986H1333.25L1330.45 42.96H1284.25V69H1324.29V105.96H1284.25V134.8H1333.25L1330.45 174ZM1468.57 55.28C1468.57 65.7333 1466.99 74.4133 1463.81 81.32C1460.64 88.2267 1455.69 94.48 1448.97 100.08L1472.21 174H1420.41L1403.05 111.28H1396.61V174H1349.57V0.119986H1414.53C1433.2 0.119986 1446.83 4.50666 1455.41 13.28C1464.19 22.0533 1468.57 36.0533 1468.57 55.28ZM1403.89 81.88C1408.75 81.88 1412.2 80.48 1414.25 77.68C1416.31 74.88 1417.33 69.84 1417.33 62.56C1417.33 55.0933 1416.31 49.96 1414.25 47.16C1412.2 44.1733 1408.84 42.68 1404.17 42.68H1396.61V81.88H1403.89Z" fill="url(#paint0_linear_44_9)"/>
<defs>
<linearGradient id="paint0_linear_44_9" x1="-12" y1="94" x2="1476" y2="94" gradientUnits="userSpaceOnUse">
<stop stop-color="#FF30A0"/>
<stop offset="1" stop-color="#DD2832"/>
</linearGradient>
</defs>
</svg>
