<svg width="776" height="136" viewBox="0 0 776 136" fill="none" xmlns="http://www.w3.org/2000/svg">
<g filter="url(#filter0_d_82_2)">
<g clip-path="url(#clip0_82_2)">
<rect x="1" width="768" height="128" rx="15" fill="#070707"/>
<g filter="url(#filter1_f_82_2)">
<ellipse cx="680.5" cy="141" rx="171.5" ry="141" fill="url(#paint0_radial_82_2)" fill-opacity="0.4"/>
</g>
<path d="M99.2201 55.8C101.053 54.2333 103.07 53.45 105.27 53.45C107.47 53.45 109.003 53.9667 109.87 55C110.77 56 111.22 57.5167 111.22 59.55V78H102.72V62.4C102.72 61.5667 102.353 61.15 101.62 61.15C100.687 61.15 99.9035 61.3833 99.2701 61.85V78H90.8701V54.05H98.5201L99.0201 55.8H99.2201ZM122.61 77.45V84.85H114.21V54.05H121.11L121.61 55.55H121.86C122.793 54.1833 124.627 53.5 127.36 53.5C130.093 53.5 132.01 54.45 133.11 56.35C134.243 58.25 134.81 61.3667 134.81 65.7C134.81 70.0333 134.21 73.2667 133.01 75.4C131.843 77.5 129.677 78.55 126.51 78.55C125.043 78.55 123.81 78.1833 122.81 77.45H122.61ZM126.11 70.5C126.243 69.9 126.327 69.3167 126.36 68.75C126.393 68.1833 126.41 67.1167 126.41 65.55C126.41 63.95 126.293 62.7333 126.06 61.9C125.827 61.0333 125.343 60.6 124.61 60.6C123.91 60.6 123.21 60.8 122.51 61.2V71.55C123.143 71.85 123.743 72 124.31 72C124.91 72 125.327 71.9 125.56 71.7C125.827 71.4667 126.01 71.0667 126.11 70.5ZM157.801 55.8C159.634 54.2333 161.651 53.45 163.851 53.45C166.051 53.45 167.584 53.9667 168.451 55C169.351 56 169.801 57.5167 169.801 59.55V78H161.301V62.4C161.301 61.5667 160.934 61.15 160.201 61.15C159.268 61.15 158.484 61.3833 157.851 61.85V78H149.351V62.4C149.351 61.5667 148.984 61.15 148.251 61.15C147.318 61.15 146.534 61.3833 145.901 61.85V78H137.501V54.05H145.151L145.651 55.8H145.851C147.684 54.2333 149.851 53.45 152.351 53.45C154.884 53.45 156.534 54.3833 157.301 56.25L157.801 55.8ZM191.752 78H183.502V54.3H191.752V78ZM184.152 52.4C183.452 51.8 183.102 50.8333 183.102 49.5C183.102 48.1667 183.452 47.1833 184.152 46.55C184.852 45.9167 186.002 45.6 187.602 45.6C189.202 45.6 190.352 45.9167 191.052 46.55C191.752 47.1833 192.102 48.1667 192.102 49.5C192.102 50.8 191.752 51.7667 191.052 52.4C190.352 53 189.202 53.3 187.602 53.3C186.002 53.3 184.852 53 184.152 52.4ZM203.273 55.8C205.106 54.2333 207.123 53.45 209.323 53.45C211.523 53.45 213.056 53.9667 213.923 55C214.823 56 215.273 57.5167 215.273 59.55V78H206.773V62.4C206.773 61.5667 206.406 61.15 205.673 61.15C204.74 61.15 203.956 61.3833 203.323 61.85V78H194.923V54.05H202.573L203.073 55.8H203.273ZM216.963 61.15C216.963 58.7167 217.696 56.8333 219.163 55.5C220.663 54.1333 222.713 53.45 225.313 53.45C227.913 53.45 230.546 53.7833 233.213 54.45L232.363 61.4C228.963 60.6333 226.679 60.25 225.513 60.25C224.813 60.25 224.463 60.5333 224.463 61.1C224.463 61.4667 224.846 61.8 225.613 62.1C228.279 63.0667 230.279 64.1667 231.613 65.4C232.979 66.6333 233.663 68.4833 233.663 70.95C233.663 73.4167 233.029 75.3 231.763 76.6C230.496 77.8667 228.546 78.5 225.913 78.5C223.313 78.5 220.713 78.1667 218.113 77.5L218.663 70.75C221.996 71.65 224.146 72.1 225.113 72.1C226.113 72.1 226.613 71.8667 226.613 71.4C226.613 70.9333 226.246 70.5667 225.513 70.3C222.546 69.1667 220.379 67.9667 219.013 66.7C217.646 65.4 216.963 63.55 216.963 61.15ZM248.853 78.05C246.386 78.35 244.236 78.5 242.403 78.5C240.603 78.5 239.186 78.0333 238.153 77.1C237.153 76.1333 236.653 74.4833 236.653 72.15V60.55H234.253V54.35H237.053L237.503 49.75H245.053V54.35H249.503L249.153 60.55H245.003V70.5C245.003 71.2 245.336 71.55 246.003 71.55C246.069 71.55 247.103 71.5 249.103 71.4L248.853 78.05ZM269.272 60.3L269.022 70.65C269.022 71.2833 269.172 71.7167 269.472 71.95C269.805 72.15 270.355 72.25 271.122 72.25L270.372 78.3C268.438 78.4333 267.372 78.5 267.172 78.5C264.705 78.5 263.138 77.65 262.472 75.95H262.222C260.988 77.65 259.088 78.5 256.522 78.5C254.555 78.5 253.038 77.8667 251.972 76.6C250.938 75.3333 250.422 73.6 250.422 71.4C250.422 68.6333 251.272 66.7167 252.972 65.65C254.705 64.5833 257.422 63.8833 261.122 63.55V62.35C261.122 61.4167 260.655 60.95 259.722 60.95C258.122 60.95 255.622 61.4333 252.222 62.4L250.972 55.1C255.238 54 258.788 53.45 261.622 53.45C264.455 53.45 266.438 54 267.572 55.1C268.705 56.2 269.272 57.9333 269.272 60.3ZM259.622 72.65C260.855 72.65 261.472 72 261.472 70.7V68.25C260.238 68.4167 259.355 68.6833 258.822 69.05C258.322 69.3833 258.072 69.9667 258.072 70.8C258.072 72.0333 258.588 72.65 259.622 72.65ZM272.999 72.5V45.95H281.249V69.85C281.249 70.4167 281.366 70.8167 281.599 71.05C281.866 71.2833 282.316 71.4 282.949 71.4L282.299 78.5H279.549C277.349 78.5 275.699 78.05 274.599 77.15C273.532 76.2167 272.999 74.6667 272.999 72.5ZM284.669 72.5V45.95H292.919V69.85C292.919 70.4167 293.036 70.8167 293.269 71.05C293.536 71.2833 293.986 71.4 294.619 71.4L293.969 78.5H291.219C289.019 78.5 287.369 78.05 286.269 77.15C285.202 76.2167 284.669 74.6667 284.669 72.5ZM336.687 60.3L336.437 70.45C336.437 71.65 336.854 72.25 337.687 72.25C338.787 72.25 339.687 71.5 340.387 70C341.12 68.4667 341.487 66.4833 341.487 64.05C341.487 60.1167 340.337 56.9667 338.037 54.6C335.77 52.2 332.587 51 328.487 51C323.587 51 319.854 52.4 317.287 55.2C314.754 57.9667 313.487 61.7667 313.487 66.6C313.487 71.4 314.72 75.0333 317.187 77.5C319.687 79.9333 323.104 81.15 327.437 81.15C329.804 81.15 332.804 80.8167 336.437 80.15V86C333.404 86.7333 330.354 87.1 327.287 87.1C324.22 87.1 321.47 86.7 319.037 85.9C316.637 85.1 314.487 83.8833 312.587 82.25C310.687 80.65 309.204 78.5 308.137 75.8C307.07 73.1 306.537 70 306.537 66.5C306.537 60.3 308.554 55.1333 312.587 51C316.62 46.8667 321.87 44.8 328.337 44.8C334.804 44.8 339.77 46.55 343.237 50.05C346.704 53.55 348.437 58.2667 348.437 64.2C348.437 68.3333 347.354 71.75 345.187 74.45C343.02 77.15 339.97 78.5 336.037 78.5H335.587C332.787 78.5 330.887 77.65 329.887 75.95H329.637C328.404 77.65 326.504 78.5 323.937 78.5C321.97 78.5 320.454 77.8667 319.387 76.6C318.354 75.3333 317.837 73.6 317.837 71.4C317.837 68.6333 318.687 66.7167 320.387 65.65C322.12 64.5833 324.837 63.8833 328.537 63.55V62.35C328.537 61.4167 328.07 60.95 327.137 60.95C325.67 60.95 323.237 61.4333 319.837 62.4L318.637 55.25C323.304 54.05 326.904 53.45 329.437 53.45C332.004 53.45 333.854 54 334.987 55.1C336.12 56.2 336.687 57.9333 336.687 60.3ZM327.037 72.65C328.27 72.65 328.887 72 328.887 70.7V68.25C327.654 68.4167 326.77 68.6833 326.237 69.05C325.737 69.3833 325.487 69.9667 325.487 70.8C325.487 72.0333 326.004 72.65 327.037 72.65ZM363.924 53.5C367.057 53.5 369.141 54.4167 370.174 56.25C371.207 58.05 371.724 61.1667 371.724 65.6C371.724 70 371.174 73.25 370.074 75.35C368.974 77.45 366.824 78.5 363.624 78.5C361.124 78.5 359.374 77.85 358.374 76.55H358.174L357.674 78H351.124V45.95H359.474V54.6H359.674C360.774 53.8667 362.191 53.5 363.924 53.5ZM363.024 70.5C363.157 69.9 363.241 69.3167 363.274 68.75C363.307 68.1833 363.324 67.1167 363.324 65.55C363.324 63.95 363.207 62.7333 362.974 61.9C362.741 61.0333 362.257 60.6 361.524 60.6C360.824 60.6 360.124 60.8 359.424 61.2V71.55C360.057 71.85 360.657 72 361.224 72C361.824 72 362.241 71.9 362.474 71.7C362.741 71.4667 362.924 71.0667 363.024 70.5ZM374.415 72.5V45.95H382.665V69.85C382.665 70.4167 382.782 70.8167 383.015 71.05C383.282 71.2833 383.732 71.4 384.365 71.4L383.715 78.5H380.965C378.765 78.5 377.115 78.05 376.015 77.15C374.948 76.2167 374.415 74.6667 374.415 72.5ZM394.535 78H386.285V54.3H394.535V78ZM386.935 52.4C386.235 51.8 385.885 50.8333 385.885 49.5C385.885 48.1667 386.235 47.1833 386.935 46.55C387.635 45.9167 388.785 45.6 390.385 45.6C391.985 45.6 393.135 45.9167 393.835 46.55C394.535 47.1833 394.885 48.1667 394.885 49.5C394.885 50.8 394.535 51.7667 393.835 52.4C393.135 53 391.985 53.3 390.385 53.3C388.785 53.3 387.635 53 386.935 52.4ZM411.206 78.05C408.739 78.35 406.589 78.5 404.756 78.5C402.956 78.5 401.539 78.0333 400.506 77.1C399.506 76.1333 399.006 74.4833 399.006 72.15V60.55H396.606V54.35H399.406L399.856 49.75H407.406V54.35H411.856L411.506 60.55H407.356V70.5C407.356 71.2 407.689 71.55 408.356 71.55C408.423 71.55 409.456 71.5 411.456 71.4L411.206 78.05ZM431.125 78H413.175L412.975 73.2L420.375 61.05H412.675V54.05H430.625L430.925 58.5L423.775 71.1H431.125V78ZM449.454 68.35H434.104V61.65H449.454V68.35ZM466.17 53.5C469.303 53.5 471.387 54.4167 472.42 56.25C473.453 58.05 473.97 61.1667 473.97 65.6C473.97 70 473.42 73.25 472.32 75.35C471.22 77.45 469.07 78.5 465.87 78.5C463.37 78.5 461.62 77.85 460.62 76.55H460.42L459.92 78H453.37V45.95H461.72V54.6H461.92C463.02 53.8667 464.437 53.5 466.17 53.5ZM465.27 70.5C465.403 69.9 465.487 69.3167 465.52 68.75C465.553 68.1833 465.57 67.1167 465.57 65.55C465.57 63.95 465.453 62.7333 465.22 61.9C464.987 61.0333 464.503 60.6 463.77 60.6C463.07 60.6 462.37 60.8 461.67 61.2V71.55C462.303 71.85 462.903 72 463.47 72C464.07 72 464.487 71.9 464.72 71.7C464.987 71.4667 465.17 71.0667 465.27 70.5ZM476.261 65.95C476.261 61.55 477.094 58.3667 478.761 56.4C480.461 54.4333 483.094 53.45 486.661 53.45C490.261 53.45 492.878 54.4167 494.511 56.35C496.144 58.2833 496.961 61.4667 496.961 65.9C496.961 70.3 496.161 73.5 494.561 75.5C492.961 77.5 490.344 78.5 486.711 78.5C483.078 78.5 480.428 77.5 478.761 75.5C477.094 73.5 476.261 70.3167 476.261 65.95ZM488.261 61.2C488.061 60.5333 487.528 60.2 486.661 60.2C485.794 60.2 485.244 60.5333 485.011 61.2C484.778 61.8667 484.661 63.2667 484.661 65.4V66.6C484.661 68.9667 484.778 70.5 485.011 71.2C485.244 71.9 485.778 72.25 486.611 72.25C487.478 72.25 488.028 71.9 488.261 71.2C488.494 70.5 488.611 69.0667 488.611 66.9V65.45C488.611 63.2833 488.494 61.8667 488.261 61.2ZM513.062 78.05C510.595 78.35 508.445 78.5 506.612 78.5C504.812 78.5 503.395 78.0333 502.362 77.1C501.362 76.1333 500.862 74.4833 500.862 72.15V60.55H498.462V54.35H501.262L501.712 49.75H509.262V54.35H513.712L513.362 60.55H509.212V70.5C509.212 71.2 509.545 71.55 510.212 71.55C510.278 71.55 511.312 71.5 513.312 71.4L513.062 78.05ZM514.131 61.15C514.131 58.7167 514.864 56.8333 516.331 55.5C517.831 54.1333 519.881 53.45 522.481 53.45C525.081 53.45 527.714 53.7833 530.381 54.45L529.531 61.4C526.131 60.6333 523.847 60.25 522.681 60.25C521.981 60.25 521.631 60.5333 521.631 61.1C521.631 61.4667 522.014 61.8 522.781 62.1C525.447 63.0667 527.447 64.1667 528.781 65.4C530.147 66.6333 530.831 68.4833 530.831 70.95C530.831 73.4167 530.197 75.3 528.931 76.6C527.664 77.8667 525.714 78.5 523.081 78.5C520.481 78.5 517.881 78.1667 515.281 77.5L515.831 70.75C519.164 71.65 521.314 72.1 522.281 72.1C523.281 72.1 523.781 71.8667 523.781 71.4C523.781 70.9333 523.414 70.5667 522.681 70.3C519.714 69.1667 517.547 67.9667 516.181 66.7C514.814 65.4 514.131 63.55 514.131 61.15ZM549.571 46.95L538.771 85.35H530.521L541.271 46.95H549.571ZM563.387 53.5C566.52 53.5 568.604 54.4167 569.637 56.25C570.67 58.05 571.187 61.1667 571.187 65.6C571.187 70 570.637 73.25 569.537 75.35C568.437 77.45 566.287 78.5 563.087 78.5C560.587 78.5 558.837 77.85 557.837 76.55H557.637L557.137 78H550.587V45.95H558.937V54.6H559.137C560.237 53.8667 561.654 53.5 563.387 53.5ZM562.487 70.5C562.62 69.9 562.704 69.3167 562.737 68.75C562.77 68.1833 562.787 67.1167 562.787 65.55C562.787 63.95 562.67 62.7333 562.437 61.9C562.204 61.0333 561.72 60.6 560.987 60.6C560.287 60.6 559.587 60.8 558.887 61.2V71.55C559.52 71.85 560.12 72 560.687 72C561.287 72 561.704 71.9 561.937 71.7C562.204 71.4667 562.387 71.0667 562.487 70.5ZM579.828 78.5C575.861 78.5 573.878 76.3 573.878 71.9V54.05H582.378V69.85C582.378 70.6833 582.745 71.1 583.478 71.1C584.411 71.1 585.195 70.8667 585.828 70.4V54.05H594.228V77.9H586.278V76.15H586.078C584.245 77.7167 582.161 78.5 579.828 78.5ZM605.668 78H597.418V54.3H605.668V78ZM598.068 52.4C597.368 51.8 597.018 50.8333 597.018 49.5C597.018 48.1667 597.368 47.1833 598.068 46.55C598.768 45.9167 599.918 45.6 601.518 45.6C603.118 45.6 604.268 45.9167 604.968 46.55C605.668 47.1833 606.018 48.1667 606.018 49.5C606.018 50.8 605.668 51.7667 604.968 52.4C604.268 53 603.118 53.3 601.518 53.3C599.918 53.3 598.768 53 598.068 52.4ZM608.839 72.5V45.95H617.089V69.85C617.089 70.4167 617.206 70.8167 617.439 71.05C617.706 71.2833 618.156 71.4 618.789 71.4L618.139 78.5H615.389C613.189 78.5 611.539 78.05 610.439 77.15C609.372 76.2167 608.839 74.6667 608.839 72.5ZM641.709 78.3L638.359 78.5C635.792 78.5 634.225 77.65 633.659 75.95H633.409C632.309 77.65 630.625 78.5 628.359 78.5C625.359 78.5 623.242 77.45 622.009 75.35C620.809 73.25 620.209 70.1333 620.209 66C620.209 61.8333 620.892 58.7 622.259 56.6C623.625 54.5 625.592 53.45 628.159 53.45C629.925 53.45 631.292 53.8667 632.259 54.7V45.95H640.609V70.65C640.609 71.2833 640.742 71.7167 641.009 71.95C641.275 72.15 641.759 72.25 642.459 72.25L641.709 78.3ZM630.359 60.5C629.659 60.5 629.192 60.9333 628.959 61.8C628.725 62.6333 628.609 63.85 628.609 65.45C628.609 67.0167 628.625 68.0833 628.659 68.65C628.692 69.2167 628.759 69.8 628.859 70.4C628.992 70.9667 629.175 71.3667 629.409 71.6C629.675 71.8 630.092 71.9 630.659 71.9C631.259 71.9 631.875 71.75 632.509 71.45V61.1C631.809 60.7 631.092 60.5 630.359 60.5ZM654.337 60.6C653.47 60.6 652.904 60.9 652.637 61.5C652.37 62.0667 652.237 62.95 652.237 64.15H656.587V62.95C656.587 61.3833 655.837 60.6 654.337 60.6ZM654.537 53.45C657.97 53.45 660.42 54.2833 661.887 55.95C663.387 57.5833 664.137 59.9333 664.137 63C664.137 63.4 664.02 65.2 663.787 68.4H652.387C652.387 70.9 653.537 72.15 655.837 72.15C656.937 72.15 659.087 71.7667 662.287 71L662.987 77.2C660.187 78.0667 657.387 78.5 654.587 78.5C651.154 78.5 648.52 77.3833 646.687 75.15C644.854 72.8833 643.937 69.8167 643.937 65.95C643.937 57.6167 647.47 53.45 654.537 53.45ZM674.756 64.55V78H666.456V54.05H673.756L674.256 55.5H674.456C675.223 54.6333 675.989 54.0833 676.756 53.85C677.556 53.5833 678.839 53.45 680.606 53.45L680.256 61.45H677.956C676.656 61.45 675.789 61.65 675.356 62.05C674.956 62.45 674.756 63.2833 674.756 64.55Z" fill="white"/>
</g>
</g>
<defs>
<filter id="filter0_d_82_2" x="0" y="0" width="776" height="136" filterUnits="userSpaceOnUse" color-interpolation-filters="sRGB">
<feFlood flood-opacity="0" result="BackgroundImageFix"/>
<feColorMatrix in="SourceAlpha" type="matrix" values="0 0 0 0 0 0 0 0 0 0 0 0 0 0 0 0 0 0 127 0" result="hardAlpha"/>
<feOffset dx="3" dy="4"/>
<feGaussianBlur stdDeviation="2"/>
<feComposite in2="hardAlpha" operator="out"/>
<feColorMatrix type="matrix" values="0 0 0 0 0 0 0 0 0 0 0 0 0 0 0 0 0 0 0.25 0"/>
<feBlend mode="normal" in2="BackgroundImageFix" result="effect1_dropShadow_82_2"/>
<feBlend mode="normal" in="SourceGraphic" in2="effect1_dropShadow_82_2" result="shape"/>
</filter>
<filter id="filter1_f_82_2" x="309" y="-200" width="743" height="682" filterUnits="userSpaceOnUse" color-interpolation-filters="sRGB">
<feFlood flood-opacity="0" result="BackgroundImageFix"/>
<feBlend mode="normal" in="SourceGraphic" in2="BackgroundImageFix" result="shape"/>
<feGaussianBlur stdDeviation="100" result="effect1_foregroundBlur_82_2"/>
</filter>
<radialGradient id="paint0_radial_82_2" cx="0" cy="0" r="1" gradientUnits="userSpaceOnUse" gradientTransform="translate(552.009 54.8931) rotate(44.199) scale(209.971 255.659)">
<stop stop-color="#FF30A0"/>
<stop offset="0.645" stop-color="#DD2832"/>
</radialGradient>
<clipPath id="clip0_82_2">
<rect x="1" width="768" height="128" rx="15" fill="white"/>
</clipPath>
</defs>
</svg>
